<svg id="undraw_code_review_l1q9" xmlns="http://www.w3.org/2000/svg" width="428" height="324.935" viewBox="0 0 428 324.935">
  <path id="Path_1" data-name="Path 1" d="M261.067,309.788C168.945,302.777,59.086,231.4,64.679,157.9S176.672,15.985,268.794,23s145.15,144.363,139.557,217.86S353.188,316.8,261.067,309.788Z" transform="translate(-53.996 -22.5)" fill="#f2f2f2"/>
  <ellipse id="Ellipse_1" data-name="Ellipse 1" cx="192.301" cy="11.781" rx="192.301" ry="11.781" transform="translate(22.496 275.53)" fill="#3f3d56"/>
  <ellipse id="Ellipse_2" data-name="Ellipse 2" cx="163.798" cy="7.791" rx="163.798" ry="7.791" transform="translate(50.999 279.33)" opacity="0.1"/>
  <ellipse id="Ellipse_3" data-name="Ellipse 3" cx="80.642" cy="7.031" rx="80.642" ry="7.031" transform="translate(0 310.874)" fill="#3f3d56"/>
  <ellipse id="Ellipse_4" data-name="Ellipse 4" cx="68.689" cy="4.649" rx="68.689" ry="4.649" transform="translate(11.953 313.142)" opacity="0.1"/>
  <rect id="Rectangle_2" data-name="Rectangle 2" width="285.791" height="224.224" transform="translate(74.562 61.567)" fill="#3f3d56"/>
  <path id="Path_2" data-name="Path 2" d="M484.132,262.338h-70.5a.856.856,0,1,1,0-1.711h70.5a.856.856,0,0,1,0,1.711Z" transform="translate(-269.926 -170.128)" fill="#f2f2f2"/>
  <path id="Path_3" data-name="Path 3" d="M621.33,287.1H510.439a.856.856,0,1,1,0-1.711H621.33a.856.856,0,1,1,0,1.711Z" transform="translate(-329.946 -185.482)" fill="#f2f2f2"/>
  <path id="Path_4" data-name="Path 4" d="M485.033,311.869h-70.5a.856.856,0,0,1,0-1.711h70.5a.856.856,0,0,1,0,1.711Z" transform="translate(-270.485 -200.836)" fill="#f2f2f2"/>
  <path id="Path_5" data-name="Path 5" d="M687.211,312.319h-70.5a.856.856,0,0,1,0-1.711h70.5a.856.856,0,0,1,0,1.711Z" transform="translate(-395.827 -201.115)" fill="#f2f2f2"/>
  <path id="Path_6" data-name="Path 6" d="M485.483,336.635h-70.5a.856.856,0,0,1,0-1.711h70.5a.856.856,0,1,1,0,1.711Z" transform="translate(-270.764 -216.19)" fill="#f2f2f2"/>
  <path id="Path_7" data-name="Path 7" d="M485.933,361.4h-70.5a.856.856,0,0,1,0-1.711h70.5a.856.856,0,0,1,0,1.711Z" transform="translate(-271.043 -231.543)" fill="#f2f2f2"/>
  <path id="Path_8" data-name="Path 8" d="M652.209,262.788H632.016a.856.856,0,1,1,0-1.711h20.193a.856.856,0,0,1,0,1.711Z" transform="translate(-405.318 -170.408)" fill="#f2f2f2"/>
  <path id="Path_9" data-name="Path 9" d="M652.209,336.635H632.016a.856.856,0,1,1,0-1.711h20.193a.856.856,0,0,1,0,1.711Z" transform="translate(-405.318 -216.19)" fill="#f2f2f2"/>
  <path id="Path_10" data-name="Path 10" d="M652.209,360.95H632.016a.856.856,0,0,1,0-1.711h20.193a.856.856,0,1,1,0,1.711Z" transform="translate(-405.318 -231.264)" fill="#f2f2f2"/>
  <path id="Path_11" data-name="Path 11" d="M741.366,360.95H721.173a.856.856,0,0,1,0-1.711h20.193a.856.856,0,0,1,0,1.711Z" transform="translate(-460.592 -231.264)" fill="#f2f2f2"/>
  <path id="Path_12" data-name="Path 12" d="M433.371,287.1H413.178a.856.856,0,1,1,0-1.711h20.193a.856.856,0,1,1,0,1.711Z" transform="translate(-269.647 -185.482)" fill="#f2f2f2"/>
  <path id="Path_13" data-name="Path 13" d="M484.357,627.069h-70.5a.856.856,0,1,1,0-1.711h70.5a.856.856,0,1,1,0,1.711Z" transform="translate(-270.066 -396.247)" fill="#f2f2f2"/>
  <path id="Path_14" data-name="Path 14" d="M483.457,676.6h-70.5a.856.856,0,1,1,0-1.711h70.5a.856.856,0,1,1,0,1.711Z" transform="translate(-269.508 -426.954)" fill="#f2f2f2"/>
  <path id="Path_15" data-name="Path 15" d="M483.907,701.366H413.4a.856.856,0,1,1,0-1.711h70.5a.856.856,0,1,1,0,1.711Z" transform="translate(-269.787 -442.308)" fill="#f2f2f2"/>
  <path id="Path_16" data-name="Path 16" d="M645.23,677.051H625.037a.856.856,0,0,1,0-1.711H645.23a.856.856,0,1,1,0,1.711Z" transform="translate(-400.991 -427.233)" fill="#f2f2f2"/>
  <path id="Path_17" data-name="Path 17" d="M645.23,701.366H625.037a.856.856,0,0,1,0-1.711H645.23a.856.856,0,1,1,0,1.711Z" transform="translate(-400.991 -442.308)" fill="#f2f2f2"/>
  <path id="Path_18" data-name="Path 18" d="M734.387,677.051H714.194a.856.856,0,1,1,0-1.711h20.193a.856.856,0,1,1,0,1.711Z" transform="translate(-456.265 -427.233)" fill="#f2f2f2"/>
  <path id="Path_19" data-name="Path 19" d="M621.555,651.835H510.664a.856.856,0,0,1,0-1.711h110.89a.856.856,0,1,1,0,1.711Z" transform="translate(-330.085 -411.601)" fill="#f2f2f2"/>
  <path id="Path_20" data-name="Path 20" d="M433.6,651.835H413.4a.856.856,0,1,1,0-1.711H433.6a.856.856,0,1,1,0,1.711Z" transform="translate(-269.787 -411.601)" fill="#f2f2f2"/>
  <path id="Path_21" data-name="Path 21" d="M621.555,726.582H510.664a.856.856,0,1,1,0-1.711h110.89a.856.856,0,1,1,0,1.711Z" transform="translate(-330.085 -457.941)" fill="#f2f2f2"/>
  <path id="Path_22" data-name="Path 22" d="M433.6,726.582H413.4a.856.856,0,1,1,0-1.711H433.6a.856.856,0,1,1,0,1.711Z" transform="translate(-269.787 -457.941)" fill="#f2f2f2"/>
  <path id="Path_23" data-name="Path 23" d="M474.394,401.13l-27.38,27.038,27.38,27.038,6.16-6.16-20.706-20.707,20.877-20.878Z" transform="translate(-277.13 -248.684)" fill="#de2929"/>
  <path id="Path_24" data-name="Path 24" d="M615,401.13l27.38,27.038L615,455.206l-6.16-6.16,20.707-20.707-20.878-20.878Z" transform="translate(-377.348 -248.684)" fill="#de2929"/>
  <circle id="Ellipse_5" data-name="Ellipse 5" cx="3.42" cy="3.42" r="3.42" transform="translate(78.742 63.847)" fill="#de2929"/>
  <circle id="Ellipse_6" data-name="Ellipse 6" cx="3.42" cy="3.42" r="3.42" transform="translate(87.863 63.847)" fill="#de2929"/>
  <circle id="Ellipse_7" data-name="Ellipse 7" cx="3.42" cy="3.42" r="3.42" transform="translate(96.984 63.847)" fill="#de2929"/>
  <rect id="Rectangle_3" data-name="Rectangle 3" width="285.791" height="1.14" transform="translate(74.562 72.968)" opacity="0.1"/>
  <path id="Path_25" data-name="Path 25" d="M1058.1,540.123c0,24.236-14.408,32.7-32.18,32.7s-32.18-8.462-32.18-32.7,32.18-55.067,32.18-55.067S1058.1,515.887,1058.1,540.123Z" transform="translate(-630.105 -309.265)" fill="#f2f2f2"/>
  <path id="Path_26" data-name="Path 26" d="M1017.334,546.614l.329-20.283,13.716-25.093-13.664,21.911.148-9.12,9.453-18.154-9.414,15.741h0l.266-16.4,10.122-14.453-10.081,11.874.167-30.077-1.046,39.816.086-1.643-10.292-15.753,10.127,18.906-.959,18.319-.028-.486L1004.4,505.138l11.828,18.3-.12,2.291-.022.035.01.188-2.433,46.478h3.25l.39-24.006,11.8-18.251Z" transform="translate(-622.686 -286.766)" fill="#3f3d56"/>
  <path id="Path_27" data-name="Path 27" d="M141.507,769.951a16.385,16.385,0,0,1-3.108,1.331c-1.93.527-3.993.334-5.943.784a2.444,2.444,0,0,0-1.921,1.349,2.833,2.833,0,0,0,.21,1.757c2.154,6.316,3.453,13.023,6.888,18.744a28.364,28.364,0,0,0,5.318,6.456,5.069,5.069,0,0,0,2.712,1.5,2.754,2.754,0,0,0,2.8-3.87c-.308-.685-.881-1.215-1.25-1.868a7.129,7.129,0,0,1-.691-2.657c-.339-2.7-.666-5.525.27-8.082a27.166,27.166,0,0,1,2.739-4.731,8.258,8.258,0,0,0,1.543-5.147,8.94,8.94,0,0,0-1.387-3.441c-.639-1.073-1.9-3.956-3.186-4.314C145.169,767.395,142.669,769.356,141.507,769.951Z" transform="translate(-94.905 -484.505)" fill="#2f2e41"/>
  <path id="Path_28" data-name="Path 28" d="M247.745,818.743a5.328,5.328,0,0,1-.252,1.8c-.4,1.061-1.4,1.789-1.914,2.8a6.185,6.185,0,0,0,.083,4.612,4.725,4.725,0,0,0,1.487,2.509,4.9,4.9,0,0,0,2.263.725c6.855.949,13.818.4,20.735.6a7.078,7.078,0,0,0,3.7-.536c1.1-.616,1.781-2.165,1.032-3.18-.672-.912-2-.9-3.132-.957a12.888,12.888,0,0,1-7.948-3.274,5.741,5.741,0,0,1-1.115-1.283,7.889,7.889,0,0,1-.583-1.337,59.6,59.6,0,0,0-3.452-7.646,4.05,4.05,0,0,0-1.484-1.777,3.922,3.922,0,0,0-1.611-.352c-1.724-.112-6.188-.7-7.521.642C246.8,813.335,247.772,817.17,247.745,818.743Z" transform="translate(-166.015 -511.48)" fill="#2f2e41"/>
  <circle id="Ellipse_8" data-name="Ellipse 8" cx="11.012" cy="11.012" r="11.012" transform="translate(81.327 132.158)" fill="#dbc2a0"/>
  <path id="Path_29" data-name="Path 29" d="M248.191,414.814a8.277,8.277,0,0,1-3.383,4.344l15.23,3.107a16.134,16.134,0,0,1-.214-6.791,3.914,3.914,0,0,0,.091-1.676c-.286-1.1-1.53-1.637-2.643-1.891-2.78-.634-5.238-.973-7.821-2.2C248.663,411.058,248.773,413.255,248.191,414.814Z" transform="translate(-165.796 -262.552)" fill="#dbc2a0"/>
  <path id="Path_30" data-name="Path 30" d="M221.97,422a11.91,11.91,0,0,1,10.38.271,23.5,23.5,0,0,1,5.158,4.115c1.464,1.412,3.026,3.03,3.13,5.062a14.182,14.182,0,0,1-.412,2.92,9.792,9.792,0,0,0,5.237,10.059,13.327,13.327,0,0,1,1.478,6.808c.07,8.907-2.74,17.923-.734,26.6.471,2.037,1.2,4.011,1.608,6.062.527,2.657.5,5.389.777,8.083a36.205,36.205,0,0,0,1.943,8.549,3.551,3.551,0,0,1-3.284,1.373,9.278,9.278,0,0,1-3.512-1.192c-5.367-2.747-10.284-6.368-15.843-8.7-3.678-1.544-7.6-2.506-11.164-4.29s-6.886-4.614-7.977-8.451a19.782,19.782,0,0,1-.527-5.132c-.108-7.264-.209-14.607,1.372-21.7,1.394-6.253,4.082-12.235,4.669-18.615.191-2.077.195-4.3,1.355-6.032C217.264,425.341,220.8,424.707,221.97,422Z" transform="translate(-143.084 -269.516)" fill="#2f2e41"/>
  <path id="Path_31" data-name="Path 31" d="M243.894,372.229a2.846,2.846,0,0,1,2.937-.711c1.037.25,1.992.785,3.039.988a1.777,1.777,0,0,0,1.423-.2,2.069,2.069,0,0,0,.614-1.357,25.9,25.9,0,0,0,.255-6.605,1.956,1.956,0,0,1,.06-.926c.259-.625,1.05-.773,1.7-.974a5.061,5.061,0,0,0,3.425-5.181,2.06,2.06,0,0,0-.63-1.422,2.589,2.589,0,0,0-1.648-.391q-4.44-.036-8.88,0a6.448,6.448,0,0,0-3.2.582,15.524,15.524,0,0,0-1.855,1.563c-1.644,1.327-3.868,1.6-5.868,2.277a5.818,5.818,0,0,0-2.572,1.534,2.71,2.71,0,0,0-.567,2.809,9.971,9.971,0,0,0,.717,1.1c1.18,1.887.394,4.334.571,6.552.22,2.77,4.319,7.263,7.1,7.919C245,380.849,242.408,374.047,243.894,372.229Z" transform="translate(-157.818 -228.904)" fill="#2f2e41"/>
  <path id="Path_32" data-name="Path 32" d="M243.564,687.684a32.862,32.862,0,0,1,.549,6.092c-.136,2.848-1.163,5.592-1.352,8.437-.142,2.125.186,4.272-.109,6.381-.189,1.35-.629,2.652-.9,3.988a16.492,16.492,0,0,0,2.65,12.642,2.07,2.07,0,0,0,.769.745,2.171,2.171,0,0,0,.953.126,68.365,68.365,0,0,0,9.566-.869.918.918,0,0,0,.614-.271.862.862,0,0,0,.133-.363c.587-3.016-.751-6.04-1.091-9.094-.363-3.261.419-6.528,1.2-9.716a43.154,43.154,0,0,1,1.318-4.647c.375-1.025.829-2.022,1.154-3.064a23.358,23.358,0,0,0,.837-5.018q.339-4.019.359-8.056a33.807,33.807,0,0,0-.633-7.6,40.539,40.539,0,0,0-3.624-9.018,5.712,5.712,0,0,0-2.135,1.015,47.641,47.641,0,0,1-5.834,3.223c-1.355.63-4,1.077-4.859,2.389-.848,1.294-.3,3.934-.236,5.361Q243.054,684.036,243.564,687.684Z" transform="translate(-163.705 -422.915)" fill="#2f2e41"/>
  <path id="Path_33" data-name="Path 33" d="M243.564,687.684a32.862,32.862,0,0,1,.549,6.092c-.136,2.848-1.163,5.592-1.352,8.437-.142,2.125.186,4.272-.109,6.381-.189,1.35-.629,2.652-.9,3.988a16.492,16.492,0,0,0,2.65,12.642,2.07,2.07,0,0,0,.769.745,2.171,2.171,0,0,0,.953.126,68.365,68.365,0,0,0,9.566-.869.918.918,0,0,0,.614-.271.862.862,0,0,0,.133-.363c.587-3.016-.751-6.04-1.091-9.094-.363-3.261.419-6.528,1.2-9.716a43.154,43.154,0,0,1,1.318-4.647c.375-1.025.829-2.022,1.154-3.064a23.358,23.358,0,0,0,.837-5.018q.339-4.019.359-8.056a33.807,33.807,0,0,0-.633-7.6,40.539,40.539,0,0,0-3.624-9.018,5.712,5.712,0,0,0-2.135,1.015,47.641,47.641,0,0,1-5.834,3.223c-1.355.63-4,1.077-4.859,2.389-.848,1.294-.3,3.934-.236,5.361Q243.054,684.036,243.564,687.684Z" transform="translate(-163.705 -422.915)" opacity="0.1"/>
  <path id="Path_34" data-name="Path 34" d="M184.278,605.518c-1.462,3.937.687,8.191,2.555,11.953,4.6,9.268,7.8,19.157,10.974,29a3.556,3.556,0,0,1,.21,2.27,2.974,2.974,0,0,1-1.072,1.272c-2.191,1.664-4.981,2.257-7.591,3.128a34.274,34.274,0,0,0-7.2,3.375c-1.891,1.172-3.663,2.525-5.432,3.876l-5.629,4.3a3.763,3.763,0,0,0-.941.911,3.679,3.679,0,0,0-.05,2.937,49.951,49.951,0,0,0,2.756,7.522,2.626,2.626,0,0,0,1,1.31c.879.472,1.953-.154,2.624-.892s1.251-1.657,2.2-1.973,1.984.067,2.971-.072c1.6-.224,2.655-1.694,3.805-2.822,4.7-4.61,12.545-4.276,17.715-8.352a22.516,22.516,0,0,1,2.368-1.85c.874-.517,1.865-.8,2.772-1.257,2.758-1.389,4.492-4.26,5.42-7.2s1.194-6.053,1.861-9.068a39.425,39.425,0,0,0,.953-4.689,25.117,25.117,0,0,0-.1-4.434l-1.865-23.074c-.152-1.879-.3-3.76-.6-5.621-5.54.2-11.075.421-16.618.487C192.954,606.6,188.463,606.912,184.278,605.518Z" transform="translate(-119.305 -383.947)" fill="#2f2e41"/>
  <path id="Path_35" data-name="Path 35" d="M201.633,604.958c.751,1.209,2.581,1.184,3.84.521s2.238-1.776,3.5-2.433a11.375,11.375,0,0,1,5.616-.8,36.509,36.509,0,0,1,9,1.006c3.012.858,5.944,2.51,9.058,2.18a1.863,1.863,0,0,0,1.429-.671,2.107,2.107,0,0,0,.235-1.078l.1-2.721a2.456,2.456,0,0,0-.217-1.378,2.311,2.311,0,0,0-1.032-.79c-4.433-2.146-9.488-2.545-14.409-2.714q-3.753-.129-7.509-.106c-2.125.013-4.676-.294-6.741.273C201.735,597.014,200.227,602.7,201.633,604.958Z" transform="translate(-138.697 -377.989)" fill="#2f2e41"/>
  <path id="Path_36" data-name="Path 36" d="M228.461,425.719c-5.808-.051-11.071-3.885-16.878-3.978a4.376,4.376,0,0,0-2.049.354,7.629,7.629,0,0,0-1.956,1.861c-1.717,1.859-4.2,2.852-5.968,4.667a6.922,6.922,0,0,0-1.921,6.519,4.844,4.844,0,0,0,5.427,3.483,13.986,13.986,0,0,1,5.449-7.4,27.7,27.7,0,0,1,4.258-2.235c2.61-1.183,5.529-2.388,8.254-1.5a11.644,11.644,0,0,1,2.816,1.535l4.543,3.052A31.628,31.628,0,0,0,228.461,425.719Z" transform="translate(-137.692 -270.006)" fill="#de2929"/>
  <path id="Path_37" data-name="Path 37" d="M199.37,444.316c-.771.962.34,2.356.17,3.577-.113.811-.781,1.431-1.059,2.2a11.8,11.8,0,0,0-.245,2.524,10.829,10.829,0,0,1-.485,1.8,32.29,32.29,0,0,0-1.021,5.33l-1.017,7.592a28.763,28.763,0,0,0-.322,3.45,10.3,10.3,0,0,1-.172,2.579,19.048,19.048,0,0,1-1.059,2.347,2.75,2.75,0,0,0-.038,2.479,4.334,4.334,0,0,0-.907,5.41,3,3,0,0,1,.467.861,2.212,2.212,0,0,1-.206,1.269l-1.028,2.739c-.263.7-.346,1.768.385,1.928a6.463,6.463,0,0,0-1.388,2.192,2.609,2.609,0,0,0,.37,2.472,3.15,3.15,0,0,1,.644.781,2.08,2.08,0,0,1-.074,1.233,4.525,4.525,0,0,0,.56,3.547,3.182,3.182,0,0,0,3.2,1.371c2.056-.464,3.9-1.2,5.977-.815a106.779,106.779,0,0,1,13.266,3.022c4.934,1.575,9.712,3.886,14.869,4.371a1.443,1.443,0,0,0,.994-.155,1.494,1.494,0,0,0,.46-.945L233.307,500a76.9,76.9,0,0,0,1.465-8.371c.181-1.817.233-3.644.285-5.47l.411-14.529a14.516,14.516,0,0,0-.836-6.316l-2.363-7.543c-1.348-4.3-4.442-8.122-5.543-12.5-.7-2.769-1.212-5.74-3.081-7.9-2.665-3.076-7.276-3.555-11.311-3.026a13.513,13.513,0,0,0-5.239,1.6,17.167,17.167,0,0,0-4.467,4.5C201.556,441.834,200.466,442.949,199.37,444.316Z" transform="translate(-132.616 -277.716)" fill="#de2929"/>
  <path id="Path_38" data-name="Path 38" d="M236.733,557.949c.333,1.434,1.031,2.756,1.458,4.164.716,2.36.655,4.9,1.37,7.261.3.991.735,1.942.95,2.954.5,2.36-.231,4.8-1.141,7.037s-2.019,4.438-2.315,6.833a5.234,5.234,0,0,0,1.391,4.686c1.35,1.136,3.311,1.059,5.069.908a5.326,5.326,0,0,0,1.84-.383c1.344-.636,1.911-2.227,2.225-3.681,1.053-4.872.752-9.922.446-14.9l-.8-13.01a30.45,30.45,0,0,0-1.091-7.466c-.281-.875-.77-2.643-1.569-3.2s-3.052-.578-4.032-.624C235.936,548.314,235.987,554.731,236.733,557.949Z" transform="translate(-160.556 -348.614)" fill="#dbc2a0"/>
  <path id="Path_39" data-name="Path 39" d="M235.738,446.473a3.165,3.165,0,0,0-3.03.268,9.338,9.338,0,0,0-2.27,2.2c-2.029,2.477-4.177,5.318-3.876,8.506a21.569,21.569,0,0,0,.881,3.486c1.36,5.085-.144,10.463.029,15.723a49.234,49.234,0,0,0,1.42,9c.134.606.35,1.307.936,1.512a2.033,2.033,0,0,0,1.352-.21,10.783,10.783,0,0,1,9.867,1.244c1.089-.581.681-2.418.437-3.628-.725-3.594.259-7.3,1.455-10.769s2.626-6.928,2.824-10.59c.224-4.149-1.151-8.2-2.508-12.125a3.9,3.9,0,0,0-3.284-3.251A22.65,22.65,0,0,1,235.738,446.473Z" transform="translate(-154.467 -285.175)" fill="#2f2e41"/>
</svg>
