<svg xmlns="http://www.w3.org/2000/svg" viewBox="0 0 512 512"><title>instagram</title><g id="instagram"><path d="M336,96a80.24,80.24,0,0,1,80,80V336a80.24,80.24,0,0,1-80,80H176a80.24,80.24,0,0,1-80-80V176a80.24,80.24,0,0,1,80-80H336m0-32H176C114.4,64,64,114.4,64,176V336c0,61.6,50.4,112,112,112H336c61.6,0,112-50.4,112-112V176C448,114.4,397.6,64,336,64Z"/><path d="M360,176a24,24,0,1,1,24-24A23.94,23.94,0,0,1,360,176ZM256,192a64,64,0,1,1-64,64,64.06,64.06,0,0,1,64-64m0-32a96,96,0,1,0,96,96A96,96,0,0,0,256,160Z"/></g></svg>