<svg xmlns="http://www.w3.org/2000/svg" viewBox="0 0 512 512"><defs><style>.cls-1{fill:#fff;}</style></defs><title>white-behance</title><g id="behnace"><path class="cls-1" d="M341,261.33h-25.8a8,8,0,0,1-6.47-12.72c9.56-13.12,29.45-12,38.61-.18A8,8,0,0,1,341,261.33ZM196.18,272H168a8,8,0,0,0-8,8v16.16a8,8,0,0,0,8,8h27.65C228.22,304.16,226.22,272,196.18,272Zm-1.28-64H168a8,8,0,0,0-8,8v16a8,8,0,0,0,8,8h30.22C225,240,229.23,208,194.9,208ZM448,72V440a8,8,0,0,1-8,8H72a8,8,0,0,1-8-8V72a8,8,0,0,1,8-8H440A8,8,0,0,1,448,72ZM296,192h64a8,8,0,0,0,8-8h0a8,8,0,0,0-8-8H296a8,8,0,0,0-8,8h0A8,8,0,0,0,296,192Zm-55.09,63.37a8.07,8.07,0,0,1-.9-12c20.74-20.95,14.16-66.42-37.85-67.19H136a8,8,0,0,0-8,8V327.87a8,8,0,0,0,8,8h61C262.28,335.87,267.64,276.77,240.91,255.37Zm142,4.15c-4.38-28.21-24.46-47.2-57.33-47.2-33.52,0-53.63,21.44-53.63,63.15,0,42.1,21.89,60.53,54.67,60.53,22.84,0,38-8.82,46.66-18.85A8,8,0,0,0,367.2,304H350.52a7.92,7.92,0,0,0-5.12,1.86c-11.51,9.81-36.66,6.32-41.62-13.67a8,8,0,0,1,7.79-9.84H376a8,8,0,0,0,8-8.11A111.58,111.58,0,0,0,383,259.52Z"/></g></svg>